# xmcd
#
# Track frame offsets:
#	150
#	18089
#	34514
#	47809
#	71832
#	88677
#	110553
#	128743
#	144310
#	156676
#	166974
#	181041
#
# Disc length: 2581 seconds
#
# Revision: 1
# Processed by: cddbd v1.5.1PL0 Copyright (c) Steve Scherf et al.
# Submitted via: CDmax 2.0
#
DISCID=9c0a130c
DTITLE=Wayne Metheny Gospel Band - Echoes From the Past
DYEAR=2004
DGENRE=Southern Gospel
TTITLE0=Mansion Over the Hilltop
TTITLE1=Hold to God's Unchanging Hand
TTITLE2=Kneel at the Cross
TTITLE3=Angel Band
TTITLE4=Just Over in the Gloryland
TTITLE5=Suppertime
TTITLE6=Keep on the Firing Line
TTITLE7=The Unclouded Day
TTITLE8=The Wings of a Dove
TTITLE9=When the Saints Go Marching In
TTITLE10=I Feel Like Traveling On
TTITLE11=I'll Fly Away
EXTD=
EXTT0=
EXTT1=
EXTT2=
EXTT3=
EXTT4=
EXTT5=
EXTT6=
EXTT7=
EXTT8=
EXTT9=
EXTT10=
EXTT11=
PLAYORDER=
